<?xml version="1.0" standalone="no"?>
<!DOCTYPE svg PUBLIC "-//W3C//DTD SVG 20010904//EN"
 "http://www.w3.org/TR/2001/REC-SVG-20010904/DTD/svg10.dtd">
<svg version="1.0" xmlns="http://www.w3.org/2000/svg"
 width="596.000000pt" height="842.000000pt" viewBox="0 0 596.000000 842.000000"
 preserveAspectRatio="xMidYMid meet">

<g transform="translate(0.000000,842.000000) scale(0.100000,-0.100000)"
fill="#000000" stroke="none">
<path d="M0 4210 l0 -4210 2980 0 2980 0 0 4210 0 4210 -2980 0 -2980 0 0
-4210z m4340 1510 c249 -421 518 -873 596 -1006 l144 -240 0 -232 0 -232 -540
0 -540 0 0 230 0 230 175 2 174 3 -140 285 c-78 157 -183 372 -235 478 -51
105 -96 192 -99 192 -3 0 -20 -33 -39 -72 -19 -40 -124 -256 -234 -480 l-201
-408 175 0 174 0 -2 -227 -3 -228 -537 -3 -538 -2 0 227 0 228 602 1018 c331
560 604 1014 608 1010 4 -4 211 -352 460 -773z m-2230 -1174 l0 -243 -67 -7
c-303 -31 -562 -248 -627 -526 -20 -83 -20 -217 -1 -298 49 -206 227 -405 434
-483 63 -24 186 -49 237 -49 l34 0 0 -240 0 -240 -62 0 c-157 0 -390 59 -543
138 -221 114 -407 307 -527 547 -182 362 -152 735 87 1100 188 287 464 464
810 519 89 14 125 19 203 24 l22 2 0 -244z m1110 -1236 l0 -520 -255 0 -255 0
0 275 0 275 -292 2 -293 3 -3 230 c-1 126 0 235 2 242 4 10 119 13 551 13
l545 0 0 -520z"/>
</g>
</svg>
